<svg xmlns:xlink="http://www.w3.org/1999/xlink" version="1.1" class="highcharts-root" style="font-family: &quot;Lucida Grande&quot;, &quot;Lucida Sans Unicode&quot;, Arial, Helvetica, sans-serif; font-size: 12px;" xmlns="http://www.w3.org/2000/svg" width="1920" height="1080" viewBox="0 0 1920 1080"><desc>Created with Highcharts 10.0.0</desc><defs><clipPath id="highcharts-0nqv5o9-492-"><rect x="0" y="0" width="1770" height="979" fill="none"></rect></clipPath><clipPath id="highcharts-0nqv5o9-514-"><rect x="0" y="0" width="1770" height="979" fill="none"></rect></clipPath><clipPath id="highcharts-0nqv5o9-536-"><rect x="0" y="0" width="1770" height="979" fill="none"></rect></clipPath><clipPath id="highcharts-0nqv5o9-558-"><rect x="0" y="0" width="1770" height="979" fill="none"></rect></clipPath></defs><rect fill="transparent" class="highcharts-background" x="0" y="0" width="1920" height="1080" rx="0" ry="0"></rect><rect fill="#F8FAFC" class="highcharts-plot-background" x="55" y="10" width="1770" height="979"></rect><g class="highcharts-grid highcharts-xaxis-grid" data-z-index="1"><path fill="none" stroke-dasharray="none" data-z-index="1" class="highcharts-grid-line" d="M 54.5 10 L 54.5 989" opacity="1"></path><path fill="none" stroke-dasharray="none" data-z-index="1" class="highcharts-grid-line" d="M 143.5 10 L 143.5 989" opacity="1"></path><path fill="none" stroke-dasharray="none" data-z-index="1" class="highcharts-grid-line" d="M 231.5 10 L 231.5 989" opacity="1"></path><path fill="none" stroke-dasharray="none" data-z-index="1" class="highcharts-grid-line" d="M 320.5 10 L 320.5 989" opacity="1"></path><path fill="none" stroke-dasharray="none" data-z-index="1" class="highcharts-grid-line" d="M 408.5 10 L 408.5 989" opacity="1"></path><path fill="none" stroke-dasharray="none" data-z-index="1" class="highcharts-grid-line" d="M 497.5 10 L 497.5 989" opacity="1"></path><path fill="none" stroke-dasharray="none" data-z-index="1" class="highcharts-grid-line" d="M 585.5 10 L 585.5 989" opacity="1"></path><path fill="none" stroke-dasharray="none" data-z-index="1" class="highcharts-grid-line" d="M 674.5 10 L 674.5 989" opacity="1"></path><path fill="none" stroke-dasharray="none" data-z-index="1" class="highcharts-grid-line" d="M 762.5 10 L 762.5 989" opacity="1"></path><path fill="none" stroke-dasharray="none" data-z-index="1" class="highcharts-grid-line" d="M 851.5 10 L 851.5 989" opacity="1"></path><path fill="none" stroke-dasharray="none" data-z-index="1" class="highcharts-grid-line" d="M 939.5 10 L 939.5 989" opacity="1"></path><path fill="none" stroke-dasharray="none" data-z-index="1" class="highcharts-grid-line" d="M 1028.5 10 L 1028.5 989" opacity="1"></path><path fill="none" stroke-dasharray="none" data-z-index="1" class="highcharts-grid-line" d="M 1116.5 10 L 1116.5 989" opacity="1"></path><path fill="none" stroke-dasharray="none" data-z-index="1" class="highcharts-grid-line" d="M 1205.5 10 L 1205.5 989" opacity="1"></path><path fill="none" stroke-dasharray="none" data-z-index="1" class="highcharts-grid-line" d="M 1293.5 10 L 1293.5 989" opacity="1"></path><path fill="none" stroke-dasharray="none" data-z-index="1" class="highcharts-grid-line" d="M 1382.5 10 L 1382.5 989" opacity="1"></path><path fill="none" stroke-dasharray="none" data-z-index="1" class="highcharts-grid-line" d="M 1470.5 10 L 1470.5 989" opacity="1"></path><path fill="none" stroke-dasharray="none" data-z-index="1" class="highcharts-grid-line" d="M 1559.5 10 L 1559.5 989" opacity="1"></path><path fill="none" stroke-dasharray="none" data-z-index="1" class="highcharts-grid-line" d="M 1647.5 10 L 1647.5 989" opacity="1"></path><path fill="none" stroke-dasharray="none" data-z-index="1" class="highcharts-grid-line" d="M 1736.5 10 L 1736.5 989" opacity="1"></path><path fill="none" stroke-dasharray="none" data-z-index="1" class="highcharts-grid-line" d="M 1824.5 10 L 1824.5 989" opacity="1"></path></g><g class="highcharts-grid highcharts-yaxis-grid" data-z-index="1"><path fill="none" stroke="#C8D8E2" stroke-width="1" stroke-dasharray="none" data-z-index="1" class="highcharts-grid-line" d="M 55 989.5 L 1825 989.5" opacity="1"></path><path fill="none" stroke="#C8D8E2" stroke-width="1" stroke-dasharray="none" data-z-index="1" class="highcharts-grid-line" d="M 55 919.5 L 1825 919.5" opacity="1"></path><path fill="none" stroke="#C8D8E2" stroke-width="1" stroke-dasharray="none" data-z-index="1" class="highcharts-grid-line" d="M 55 849.5 L 1825 849.5" opacity="1"></path><path fill="none" stroke="#C8D8E2" stroke-width="1" stroke-dasharray="none" data-z-index="1" class="highcharts-grid-line" d="M 55 779.5 L 1825 779.5" opacity="1"></path><path fill="none" stroke="#C8D8E2" stroke-width="1" stroke-dasharray="none" data-z-index="1" class="highcharts-grid-line" d="M 55 709.5 L 1825 709.5" opacity="1"></path><path fill="none" stroke="#C8D8E2" stroke-width="1" stroke-dasharray="none" data-z-index="1" class="highcharts-grid-line" d="M 55 639.5 L 1825 639.5" opacity="1"></path><path fill="none" stroke="#C8D8E2" stroke-width="1" stroke-dasharray="none" data-z-index="1" class="highcharts-grid-line" d="M 55 569.5 L 1825 569.5" opacity="1"></path><path fill="none" stroke="#C8D8E2" stroke-width="1" stroke-dasharray="none" data-z-index="1" class="highcharts-grid-line" d="M 55 500.5 L 1825 500.5" opacity="1"></path><path fill="none" stroke="#C8D8E2" stroke-width="1" stroke-dasharray="none" data-z-index="1" class="highcharts-grid-line" d="M 55 430.5 L 1825 430.5" opacity="1"></path><path fill="none" stroke="#C8D8E2" stroke-width="1" stroke-dasharray="none" data-z-index="1" class="highcharts-grid-line" d="M 55 360.5 L 1825 360.5" opacity="1"></path><path fill="none" stroke="#C8D8E2" stroke-width="1" stroke-dasharray="none" data-z-index="1" class="highcharts-grid-line" d="M 55 290.5 L 1825 290.5" opacity="1"></path><path fill="none" stroke="#C8D8E2" stroke-width="1" stroke-dasharray="none" data-z-index="1" class="highcharts-grid-line" d="M 55 220.5 L 1825 220.5" opacity="1"></path><path fill="none" stroke="#C8D8E2" stroke-width="1" stroke-dasharray="none" data-z-index="1" class="highcharts-grid-line" d="M 55 150.5 L 1825 150.5" opacity="1"></path><path fill="none" stroke="#C8D8E2" stroke-width="1" stroke-dasharray="none" data-z-index="1" class="highcharts-grid-line" d="M 55 80.5 L 1825 80.5" opacity="1"></path><path fill="none" stroke="#C8D8E2" stroke-width="1" stroke-dasharray="none" data-z-index="1" class="highcharts-grid-line" d="M 55 9.5 L 1825 9.5" opacity="1"></path></g><g class="highcharts-grid highcharts-yaxis-grid" data-z-index="1"><path fill="none" stroke="#C8D8E2" stroke-width="1" stroke-dasharray="none" data-z-index="1" class="highcharts-grid-line" d="M 55 989.5 L 1825 989.5" opacity="1"></path><path fill="none" stroke="#C8D8E2" stroke-width="1" stroke-dasharray="none" data-z-index="1" class="highcharts-grid-line" d="M 55 919.5 L 1825 919.5" opacity="1"></path><path fill="none" stroke="#C8D8E2" stroke-width="1" stroke-dasharray="none" data-z-index="1" class="highcharts-grid-line" d="M 55 849.5 L 1825 849.5" opacity="1"></path><path fill="none" stroke="#C8D8E2" stroke-width="1" stroke-dasharray="none" data-z-index="1" class="highcharts-grid-line" d="M 55 779.5 L 1825 779.5" opacity="1"></path><path fill="none" stroke="#C8D8E2" stroke-width="1" stroke-dasharray="none" data-z-index="1" class="highcharts-grid-line" d="M 55 709.5 L 1825 709.5" opacity="1"></path><path fill="none" stroke="#C8D8E2" stroke-width="1" stroke-dasharray="none" data-z-index="1" class="highcharts-grid-line" d="M 55 639.5 L 1825 639.5" opacity="1"></path><path fill="none" stroke="#C8D8E2" stroke-width="1" stroke-dasharray="none" data-z-index="1" class="highcharts-grid-line" d="M 55 569.5 L 1825 569.5" opacity="1"></path><path fill="none" stroke="#C8D8E2" stroke-width="1" stroke-dasharray="none" data-z-index="1" class="highcharts-grid-line" d="M 55 500.5 L 1825 500.5" opacity="1"></path><path fill="none" stroke="#C8D8E2" stroke-width="1" stroke-dasharray="none" data-z-index="1" class="highcharts-grid-line" d="M 55 430.5 L 1825 430.5" opacity="1"></path><path fill="none" stroke="#C8D8E2" stroke-width="1" stroke-dasharray="none" data-z-index="1" class="highcharts-grid-line" d="M 55 360.5 L 1825 360.5" opacity="1"></path><path fill="none" stroke="#C8D8E2" stroke-width="1" stroke-dasharray="none" data-z-index="1" class="highcharts-grid-line" d="M 55 290.5 L 1825 290.5" opacity="1"></path><path fill="none" stroke="#C8D8E2" stroke-width="1" stroke-dasharray="none" data-z-index="1" class="highcharts-grid-line" d="M 55 220.5 L 1825 220.5" opacity="1"></path><path fill="none" stroke="#C8D8E2" stroke-width="1" stroke-dasharray="none" data-z-index="1" class="highcharts-grid-line" d="M 55 150.5 L 1825 150.5" opacity="1"></path><path fill="none" stroke="#C8D8E2" stroke-width="1" stroke-dasharray="none" data-z-index="1" class="highcharts-grid-line" d="M 55 80.5 L 1825 80.5" opacity="1"></path><path fill="none" stroke="#C8D8E2" stroke-width="1" stroke-dasharray="none" data-z-index="1" class="highcharts-grid-line" d="M 55 9.5 L 1825 9.5" opacity="1"></path></g><g class="highcharts-grid highcharts-yaxis-grid" data-z-index="1"><path fill="none" stroke="#C8D8E2" stroke-width="1" stroke-dasharray="none" data-z-index="1" class="highcharts-grid-line" d="M 55 989.5 L 1825 989.5" opacity="1"></path><path fill="none" stroke="#C8D8E2" stroke-width="1" stroke-dasharray="none" data-z-index="1" class="highcharts-grid-line" d="M 55 919.5 L 1825 919.5" opacity="1"></path><path fill="none" stroke="#C8D8E2" stroke-width="1" stroke-dasharray="none" data-z-index="1" class="highcharts-grid-line" d="M 55 849.5 L 1825 849.5" opacity="1"></path><path fill="none" stroke="#C8D8E2" stroke-width="1" stroke-dasharray="none" data-z-index="1" class="highcharts-grid-line" d="M 55 779.5 L 1825 779.5" opacity="1"></path><path fill="none" stroke="#C8D8E2" stroke-width="1" stroke-dasharray="none" data-z-index="1" class="highcharts-grid-line" d="M 55 709.5 L 1825 709.5" opacity="1"></path><path fill="none" stroke="#C8D8E2" stroke-width="1" stroke-dasharray="none" data-z-index="1" class="highcharts-grid-line" d="M 55 639.5 L 1825 639.5" opacity="1"></path><path fill="none" stroke="#C8D8E2" stroke-width="1" stroke-dasharray="none" data-z-index="1" class="highcharts-grid-line" d="M 55 569.5 L 1825 569.5" opacity="1"></path><path fill="none" stroke="#C8D8E2" stroke-width="1" stroke-dasharray="none" data-z-index="1" class="highcharts-grid-line" d="M 55 500.5 L 1825 500.5" opacity="1"></path><path fill="none" stroke="#C8D8E2" stroke-width="1" stroke-dasharray="none" data-z-index="1" class="highcharts-grid-line" d="M 55 430.5 L 1825 430.5" opacity="1"></path><path fill="none" stroke="#C8D8E2" stroke-width="1" stroke-dasharray="none" data-z-index="1" class="highcharts-grid-line" d="M 55 360.5 L 1825 360.5" opacity="1"></path><path fill="none" stroke="#C8D8E2" stroke-width="1" stroke-dasharray="none" data-z-index="1" class="highcharts-grid-line" d="M 55 290.5 L 1825 290.5" opacity="1"></path><path fill="none" stroke="#C8D8E2" stroke-width="1" stroke-dasharray="none" data-z-index="1" class="highcharts-grid-line" d="M 55 220.5 L 1825 220.5" opacity="1"></path><path fill="none" stroke="#C8D8E2" stroke-width="1" stroke-dasharray="none" data-z-index="1" class="highcharts-grid-line" d="M 55 150.5 L 1825 150.5" opacity="1"></path><path fill="none" stroke="#C8D8E2" stroke-width="1" stroke-dasharray="none" data-z-index="1" class="highcharts-grid-line" d="M 55 80.5 L 1825 80.5" opacity="1"></path><path fill="none" stroke="#C8D8E2" stroke-width="1" stroke-dasharray="none" data-z-index="1" class="highcharts-grid-line" d="M 55 9.5 L 1825 9.5" opacity="1"></path></g><rect fill="none" class="highcharts-plot-border" data-z-index="1" stroke="#C8D8E2" stroke-width="1" x="54.5" y="9.5" width="1771" height="980"></rect><g class="highcharts-axis highcharts-xaxis" data-z-index="2"><path fill="none" class="highcharts-tick" stroke="#C8D8E2" stroke-width="1" d="M 54.5 989 L 54.5 991" opacity="1"></path><path fill="none" class="highcharts-tick" stroke="#C8D8E2" stroke-width="1" d="M 143.5 989 L 143.5 991" opacity="1"></path><path fill="none" class="highcharts-tick" stroke="#C8D8E2" stroke-width="1" d="M 231.5 989 L 231.5 991" opacity="1"></path><path fill="none" class="highcharts-tick" stroke="#C8D8E2" stroke-width="1" d="M 320.5 989 L 320.5 991" opacity="1"></path><path fill="none" class="highcharts-tick" stroke="#C8D8E2" stroke-width="1" d="M 408.5 989 L 408.5 991" opacity="1"></path><path fill="none" class="highcharts-tick" stroke="#C8D8E2" stroke-width="1" d="M 497.5 989 L 497.5 991" opacity="1"></path><path fill="none" class="highcharts-tick" stroke="#C8D8E2" stroke-width="1" d="M 585.5 989 L 585.5 991" opacity="1"></path><path fill="none" class="highcharts-tick" stroke="#C8D8E2" stroke-width="1" d="M 674.5 989 L 674.5 991" opacity="1"></path><path fill="none" class="highcharts-tick" stroke="#C8D8E2" stroke-width="1" d="M 762.5 989 L 762.5 991" opacity="1"></path><path fill="none" class="highcharts-tick" stroke="#C8D8E2" stroke-width="1" d="M 851.5 989 L 851.5 991" opacity="1"></path><path fill="none" class="highcharts-tick" stroke="#C8D8E2" stroke-width="1" d="M 939.5 989 L 939.5 991" opacity="1"></path><path fill="none" class="highcharts-tick" stroke="#C8D8E2" stroke-width="1" d="M 1028.5 989 L 1028.5 991" opacity="1"></path><path fill="none" class="highcharts-tick" stroke="#C8D8E2" stroke-width="1" d="M 1116.5 989 L 1116.5 991" opacity="1"></path><path fill="none" class="highcharts-tick" stroke="#C8D8E2" stroke-width="1" d="M 1205.5 989 L 1205.5 991" opacity="1"></path><path fill="none" class="highcharts-tick" stroke="#C8D8E2" stroke-width="1" d="M 1293.5 989 L 1293.5 991" opacity="1"></path><path fill="none" class="highcharts-tick" stroke="#C8D8E2" stroke-width="1" d="M 1382.5 989 L 1382.5 991" opacity="1"></path><path fill="none" class="highcharts-tick" stroke="#C8D8E2" stroke-width="1" d="M 1470.5 989 L 1470.5 991" opacity="1"></path><path fill="none" class="highcharts-tick" stroke="#C8D8E2" stroke-width="1" d="M 1559.5 989 L 1559.5 991" opacity="1"></path><path fill="none" class="highcharts-tick" stroke="#C8D8E2" stroke-width="1" d="M 1647.5 989 L 1647.5 991" opacity="1"></path><path fill="none" class="highcharts-tick" stroke="#C8D8E2" stroke-width="1" d="M 1736.5 989 L 1736.5 991" opacity="1"></path><path fill="none" class="highcharts-tick" stroke="#C8D8E2" stroke-width="1" d="M 1825.5 989 L 1825.5 991" opacity="1"></path><path fill="none" class="highcharts-axis-line" data-z-index="7" d="M 55 989 L 1825 989"></path></g><g class="highcharts-axis highcharts-yaxis" data-z-index="2"><path fill="none" class="highcharts-axis-line" data-z-index="7" d="M 1825 10 L 1825 989"></path></g><g class="highcharts-axis highcharts-yaxis" data-z-index="2"><path fill="none" class="highcharts-axis-line" data-z-index="7" d="M 55 10 L 55 989"></path></g><g class="highcharts-axis highcharts-yaxis" data-z-index="2"><path fill="none" class="highcharts-axis-line" data-z-index="7" d="M 1881 10 L 1881 989"></path></g><g class="highcharts-series-group" data-z-index="3"><g class="highcharts-series highcharts-series-0 highcharts-area-series" data-z-index="0.1" opacity="1" transform="translate(55,10) scale(1 1)" clip-path="url(#highcharts-0nqv5o9-514-)"><path fill="rgb(90,120,240)" fill-opacity="0.1" d="M 0 769.21428571429 L 88.5 629.3571428571399 L 177 629.3571428571399 L 265.5 629.3571428571399 L 354 629.3571428571399 L 442.5 629.3571428571399 L 531 629.3571428571399 L 619.5 629.3571428571399 L 708 629.3571428571399 L 796.5 629.3571428571399 L 885 629.3571428571399 L 973.5 629.3571428571399 L 1062 629.3571428571399 L 1150.5 629.3571428571399 L 1239 629.3571428571399 L 1327.5 629.3571428571399 L 1416 629.3571428571399 L 1504.5 629.3571428571399 L 1593 629.3571428571399 L 1681.5 629.3571428571399 L 1770 629.3571428571399 L 1770 979 L 1681.5 979 L 1593 979 L 1504.5 979 L 1416 979 L 1327.5 979 L 1239 979 L 1150.5 979 L 1062 979 L 973.5 979 L 885 979 L 796.5 979 L 708 979 L 619.5 979 L 531 979 L 442.5 979 L 354 979 L 265.5 979 L 177 979 L 88.5 979 L 0 979 Z" class="highcharts-area" data-z-index="0"></path><path fill="none" d="M 0 769.21428571429 L 88.5 629.3571428571399 L 177 629.3571428571399 L 265.5 629.3571428571399 L 354 629.3571428571399 L 442.5 629.3571428571399 L 531 629.3571428571399 L 619.5 629.3571428571399 L 708 629.3571428571399 L 796.5 629.3571428571399 L 885 629.3571428571399 L 973.5 629.3571428571399 L 1062 629.3571428571399 L 1150.5 629.3571428571399 L 1239 629.3571428571399 L 1327.5 629.3571428571399 L 1416 629.3571428571399 L 1504.5 629.3571428571399 L 1593 629.3571428571399 L 1681.5 629.3571428571399 L 1770 629.3571428571399" class="highcharts-graph" data-z-index="1" stroke="#5a78f0" stroke-width="2" stroke-linejoin="round" stroke-linecap="round"></path></g><g class="highcharts-markers highcharts-series-0 highcharts-area-series" data-z-index="0.1" opacity="1" transform="translate(55,10) scale(1 1)" clip-path="none"></g><g class="highcharts-series highcharts-series-1 highcharts-line-series" data-z-index="0.1" opacity="1" transform="translate(55,10) scale(1 1)" clip-path="url(#highcharts-0nqv5o9-536-)"><path fill="none" d="M 0 247.61707142856994 L 88.5 262.65171428571 L 177 149.53059523809998 L 265.5 268.82873809524006 L 354 286.73045238095006 L 442.5 336.10002380952005 L 531 315.91397619047996 L 619.5 284.77245238094997 L 708 337.10233333332997 L 796.5 324.84152380952 L 885 324.11892857143005 L 973.5 278.99169047619 L 1062 269.41147619048 L 1150.5 283.84007142857 L 1239 279.83083333333 L 1327.5 318.19830952381005 L 1416 333.02316666667 L 1504.5 349.40976190476 L 1593 331.92761904762006 L 1681.5 299.01457142857 L 1770 364.84066666667" class="highcharts-graph" data-z-index="1" stroke="#e6a200" stroke-width="2" stroke-linejoin="round" stroke-linecap="round"></path></g><g class="highcharts-markers highcharts-series-1 highcharts-line-series" data-z-index="0.1" opacity="1" transform="translate(55,10) scale(1 1)" clip-path="none"><path fill="#e6a200" d="M 0 244 L 4 248 L 0 252 L -4 248 Z" opacity="1" class="highcharts-point"></path><path fill="#e6a200" d="M 88 259 L 92 263 L 88 267 L 84 263 Z" opacity="1" class="highcharts-point"></path><path fill="#e6a200" d="M 177 146 L 181 150 L 177 154 L 173 150 Z" opacity="1" class="highcharts-point"></path><path fill="#e6a200" d="M 265 265 L 269 269 L 265 273 L 261 269 Z" opacity="1" class="highcharts-point"></path><path fill="#e6a200" d="M 354 283 L 358 287 L 354 291 L 350 287 Z" opacity="1" class="highcharts-point"></path><path fill="#e6a200" d="M 442 332 L 446 336 L 442 340 L 438 336 Z" opacity="1" class="highcharts-point"></path><path fill="#e6a200" d="M 531 312 L 535 316 L 531 320 L 527 316 Z" opacity="1" class="highcharts-point"></path><path fill="#e6a200" d="M 619 281 L 623 285 L 619 289 L 615 285 Z" opacity="1" class="highcharts-point"></path><path fill="#e6a200" d="M 708 333 L 712 337 L 708 341 L 704 337 Z" opacity="1" class="highcharts-point"></path><path fill="#e6a200" d="M 796 321 L 800 325 L 796 329 L 792 325 Z" opacity="1" class="highcharts-point"></path><path fill="#e6a200" d="M 885 320 L 889 324 L 885 328 L 881 324 Z" opacity="1" class="highcharts-point"></path><path fill="#e6a200" d="M 973 275 L 977 279 L 973 283 L 969 279 Z" opacity="1" class="highcharts-point"></path><path fill="#e6a200" d="M 1062 265 L 1066 269 L 1062 273 L 1058 269 Z" opacity="1" class="highcharts-point"></path><path fill="#e6a200" d="M 1150 280 L 1154 284 L 1150 288 L 1146 284 Z" opacity="1" class="highcharts-point"></path><path fill="#e6a200" d="M 1239 276 L 1243 280 L 1239 284 L 1235 280 Z" opacity="1" class="highcharts-point"></path><path fill="#e6a200" d="M 1327 314 L 1331 318 L 1327 322 L 1323 318 Z" opacity="1" class="highcharts-point"></path><path fill="#e6a200" d="M 1416 329 L 1420 333 L 1416 337 L 1412 333 Z" opacity="1" class="highcharts-point"></path><path fill="#e6a200" d="M 1504 345 L 1508 349 L 1504 353 L 1500 349 Z" opacity="1" class="highcharts-point"></path><path fill="#e6a200" d="M 1593 328 L 1597 332 L 1593 336 L 1589 332 Z" opacity="1" class="highcharts-point"></path><path fill="#e6a200" d="M 1681 295 L 1685 299 L 1681 303 L 1677 299 Z" opacity="1" class="highcharts-point"></path><path fill="#e6a200" d="M 1770 361 L 1774 365 L 1770 369 L 1766 365 Z" opacity="1" class="highcharts-point"></path></g><g class="highcharts-series highcharts-series-2 highcharts-line-series" data-z-index="0.1" opacity="1" transform="translate(55,10) scale(1 1)" clip-path="url(#highcharts-0nqv5o9-558-)"><path fill="none" d="M 0 821.42761904762 L 88.5 266.66095238095 L 177 327.73190476189995 L 265.5 215.84619047619003 L 354 196.73238095238003 L 442.5 136.59380952381002 L 531 164.09904761905 L 619.5 199.06333333332998 L 708 134.26285714285996 L 796.5 150.57952380951997 L 885 150.11333333333005 L 973.5 207.45476190475995 L 1062 215.38 L 1150.5 193.46904761905 L 1239 208.85333333333006 L 1327.5 159.43714285713997 L 1416 141.25571428571004 L 1504.5 117.94619047619005 L 1593 141.25571428571004 L 1681.5 181.81428571429 L 1770 670.3819047618999" class="highcharts-graph" data-z-index="1" stroke="#7fc61b" stroke-width="2" stroke-linejoin="round" stroke-linecap="round"></path></g><g class="highcharts-markers highcharts-series-2 highcharts-line-series" data-z-index="0.1" opacity="1" transform="translate(55,10) scale(1 1)" clip-path="none"><path fill="#7fc61b" d="M -4 817 L 4 817 L 4 825 L -4 825 Z" opacity="1" class="highcharts-point"></path><path fill="#7fc61b" d="M 84 263 L 92 263 L 92 271 L 84 271 Z" opacity="1" class="highcharts-point"></path><path fill="#7fc61b" d="M 173 324 L 181 324 L 181 332 L 173 332 Z" opacity="1" class="highcharts-point"></path><path fill="#7fc61b" d="M 261 212 L 269 212 L 269 220 L 261 220 Z" opacity="1" class="highcharts-point"></path><path fill="#7fc61b" d="M 350 193 L 358 193 L 358 201 L 350 201 Z" opacity="1" class="highcharts-point"></path><path fill="#7fc61b" d="M 438 133 L 446 133 L 446 141 L 438 141 Z" opacity="1" class="highcharts-point"></path><path fill="#7fc61b" d="M 527 160 L 535 160 L 535 168 L 527 168 Z" opacity="1" class="highcharts-point"></path><path fill="#7fc61b" d="M 615 195 L 623 195 L 623 203 L 615 203 Z" opacity="1" class="highcharts-point"></path><path fill="#7fc61b" d="M 704 130 L 712 130 L 712 138 L 704 138 Z" opacity="1" class="highcharts-point"></path><path fill="#7fc61b" d="M 792 147 L 800 147 L 800 155 L 792 155 Z" opacity="1" class="highcharts-point"></path><path fill="#7fc61b" d="M 881 146 L 889 146 L 889 154 L 881 154 Z" opacity="1" class="highcharts-point"></path><path fill="#7fc61b" d="M 969 203 L 977 203 L 977 211 L 969 211 Z" opacity="1" class="highcharts-point"></path><path fill="#7fc61b" d="M 1058 211 L 1066 211 L 1066 219 L 1058 219 Z" opacity="1" class="highcharts-point"></path><path fill="#7fc61b" d="M 1146 189 L 1154 189 L 1154 197 L 1146 197 Z" opacity="1" class="highcharts-point"></path><path fill="#7fc61b" d="M 1235 205 L 1243 205 L 1243 213 L 1235 213 Z" opacity="1" class="highcharts-point"></path><path fill="#7fc61b" d="M 1323 155 L 1331 155 L 1331 163 L 1323 163 Z" opacity="1" class="highcharts-point"></path><path fill="#7fc61b" d="M 1412 137 L 1420 137 L 1420 145 L 1412 145 Z" opacity="1" class="highcharts-point"></path><path fill="#7fc61b" d="M 1500 114 L 1508 114 L 1508 122 L 1500 122 Z" opacity="1" class="highcharts-point"></path><path fill="#7fc61b" d="M 1589 137 L 1597 137 L 1597 145 L 1589 145 Z" opacity="1" class="highcharts-point"></path><path fill="#7fc61b" d="M 1677 178 L 1685 178 L 1685 186 L 1677 186 Z" opacity="1" class="highcharts-point"></path><path fill="#7fc61b" d="M 1766 666 L 1774 666 L 1774 674 L 1766 674 Z" opacity="1" class="highcharts-point"></path></g><g class="highcharts-series highcharts-series-3 highcharts-line-series" data-z-index="0.1" opacity="1" transform="translate(55,10) scale(1 1)" clip-path="url(#highcharts-0nqv5o9-558-)"><path fill="none" d="M 0 979 L 88.5 979 L 177 979 L 265.5 979 L 354 979 L 442.5 979 L 531 979 L 619.5 979 L 708 979 L 796.5 979 L 885 979 L 973.5 979 L 1062 979 L 1150.5 979 L 1239 979 L 1327.5 979 L 1416 979 L 1504.5 979 L 1593 979 L 1681.5 979 L 1770 979" class="highcharts-graph" data-z-index="1" stroke="#d01f25" stroke-width="2" stroke-linejoin="round" stroke-linecap="round"></path></g><g class="highcharts-markers highcharts-series-3 highcharts-line-series" data-z-index="0.1" opacity="1" transform="translate(55,10) scale(1 1)" clip-path="none"><path fill="#d01f25" d="M 0 975 L 4 983 L -4 983 Z" opacity="1" class="highcharts-point"></path><path fill="#d01f25" d="M 88 975 L 92 983 L 84 983 Z" opacity="1" class="highcharts-point"></path><path fill="#d01f25" d="M 177 975 L 181 983 L 173 983 Z" opacity="1" class="highcharts-point"></path><path fill="#d01f25" d="M 265 975 L 269 983 L 261 983 Z" opacity="1" class="highcharts-point"></path><path fill="#d01f25" d="M 354 975 L 358 983 L 350 983 Z" opacity="1" class="highcharts-point"></path><path fill="#d01f25" d="M 442 975 L 446 983 L 438 983 Z" opacity="1" class="highcharts-point"></path><path fill="#d01f25" d="M 531 975 L 535 983 L 527 983 Z" opacity="1" class="highcharts-point"></path><path fill="#d01f25" d="M 619 975 L 623 983 L 615 983 Z" opacity="1" class="highcharts-point"></path><path fill="#d01f25" d="M 708 975 L 712 983 L 704 983 Z" opacity="1" class="highcharts-point"></path><path fill="#d01f25" d="M 796 975 L 800 983 L 792 983 Z" opacity="1" class="highcharts-point"></path><path fill="#d01f25" d="M 885 975 L 889 983 L 881 983 Z" opacity="1" class="highcharts-point"></path><path fill="#d01f25" d="M 973 975 L 977 983 L 969 983 Z" opacity="1" class="highcharts-point"></path><path fill="#d01f25" d="M 1062 975 L 1066 983 L 1058 983 Z" opacity="1" class="highcharts-point"></path><path fill="#d01f25" d="M 1150 975 L 1154 983 L 1146 983 Z" opacity="1" class="highcharts-point"></path><path fill="#d01f25" d="M 1239 975 L 1243 983 L 1235 983 Z" opacity="1" class="highcharts-point"></path><path fill="#d01f25" d="M 1327 975 L 1331 983 L 1323 983 Z" opacity="1" class="highcharts-point"></path><path fill="#d01f25" d="M 1416 975 L 1420 983 L 1412 983 Z" opacity="1" class="highcharts-point"></path><path fill="#d01f25" d="M 1504 975 L 1508 983 L 1500 983 Z" opacity="1" class="highcharts-point"></path><path fill="#d01f25" d="M 1593 975 L 1597 983 L 1589 983 Z" opacity="1" class="highcharts-point"></path><path fill="#d01f25" d="M 1681 975 L 1685 983 L 1677 983 Z" opacity="1" class="highcharts-point"></path><path fill="#d01f25" d="M 1770 975 L 1774 983 L 1766 983 Z" opacity="1" class="highcharts-point"></path></g></g><text x="965" text-anchor="middle" class="highcharts-title" data-z-index="4" style="color: rgb(51, 51, 51); font-size: 18px; fill: rgb(51, 51, 51);" y="24"></text><text x="10" class="highcharts-subtitle" data-z-index="4" style="color: rgb(102, 102, 102); fill: rgb(102, 102, 102);" y="24"></text><text x="10" text-anchor="start" class="highcharts-caption" data-z-index="4" style="color: rgb(102, 102, 102); fill: rgb(102, 102, 102);" y="1057"></text><g class="highcharts-legend highcharts-no-tooltip" data-z-index="7" transform="translate(683,1019)"><rect fill="none" class="highcharts-legend-box" rx="0" ry="0" x="0" y="0" width="564" height="26" visibility="visible"></rect><g data-z-index="1"><g><g class="highcharts-legend-item highcharts-area-series highcharts-color-undefined highcharts-series-0" data-z-index="1" transform="translate(8,3)"><text x="21" text-anchor="start" data-z-index="2" y="15" style="color: rgb(88, 96, 110); cursor: pointer; font-size: 12px; font-weight: bold; fill: rgb(88, 96, 110);">ALL - Users</text><rect x="2" y="4" width="12" height="12" fill="#5a78f0" rx="6" ry="6" class="highcharts-point" data-z-index="3"></rect></g><g class="highcharts-legend-item highcharts-line-series highcharts-color-undefined highcharts-series-1" data-z-index="1" transform="translate(119.640625,3)"><path fill="none" d="M 0 11 L 16 11" class="highcharts-graph" stroke="#e6a200" stroke-width="2"></path><path fill="#e6a200" d="M 8 7 L 12 11 L 8 15 L 4 11 Z" class="highcharts-point" opacity="1"></path><text x="21" y="15" text-anchor="start" data-z-index="2" style="color: rgb(88, 96, 110); cursor: pointer; font-size: 12px; font-weight: bold; fill: rgb(88, 96, 110);">ALL - Response Time</text></g><g class="highcharts-legend-item highcharts-line-series highcharts-color-undefined highcharts-series-2" data-z-index="1" transform="translate(287.875,3)"><path fill="none" d="M 0 11 L 16 11" class="highcharts-graph" stroke="#7fc61b" stroke-width="2"></path><path fill="#7fc61b" d="M 4 7 L 12 7 L 12 15 L 4 15 Z" class="highcharts-point" opacity="1"></path><text x="21" y="15" text-anchor="start" data-z-index="2" style="color: rgb(88, 96, 110); cursor: pointer; font-size: 12px; font-weight: bold; fill: rgb(88, 96, 110);">ALL - Hit/s Total</text></g><g class="highcharts-legend-item highcharts-line-series highcharts-color-undefined highcharts-series-3" data-z-index="1" transform="translate(429.544921875,3)"><path fill="none" d="M 0 11 L 16 11" class="highcharts-graph" stroke="#d01f25" stroke-width="2"></path><path fill="#d01f25" d="M 8 7 L 12 15 L 4 15 Z" class="highcharts-point" opacity="1"></path><text x="21" y="15" text-anchor="start" data-z-index="2" style="color: rgb(88, 96, 110); cursor: pointer; font-size: 12px; font-weight: bold; fill: rgb(88, 96, 110);">ALL - Hit/s Errors</text></g></g></g></g><g class="highcharts-axis-labels highcharts-xaxis-labels" data-z-index="7"><text x="55" style="color: rgb(88, 96, 110); cursor: default; font-size: 11px; fill: rgb(88, 96, 110);" text-anchor="middle" transform="translate(0,0)" y="1004" opacity="1">13:32</text><text x="143.5" style="color: rgb(88, 96, 110); cursor: default; font-size: 11px; fill: rgb(88, 96, 110);" text-anchor="middle" transform="translate(0,0)" y="1004" opacity="1">13:33</text><text x="232" style="color: rgb(88, 96, 110); cursor: default; font-size: 11px; fill: rgb(88, 96, 110);" text-anchor="middle" transform="translate(0,0)" y="1004" opacity="1">13:34</text><text x="320.5" style="color: rgb(88, 96, 110); cursor: default; font-size: 11px; fill: rgb(88, 96, 110);" text-anchor="middle" transform="translate(0,0)" y="1004" opacity="1">13:35</text><text x="409" style="color: rgb(88, 96, 110); cursor: default; font-size: 11px; fill: rgb(88, 96, 110);" text-anchor="middle" transform="translate(0,0)" y="1004" opacity="1">13:36</text><text x="497.5" style="color: rgb(88, 96, 110); cursor: default; font-size: 11px; fill: rgb(88, 96, 110);" text-anchor="middle" transform="translate(0,0)" y="1004" opacity="1">13:37</text><text x="586" style="color: rgb(88, 96, 110); cursor: default; font-size: 11px; fill: rgb(88, 96, 110);" text-anchor="middle" transform="translate(0,0)" y="1004" opacity="1">13:38</text><text x="674.5" style="color: rgb(88, 96, 110); cursor: default; font-size: 11px; fill: rgb(88, 96, 110);" text-anchor="middle" transform="translate(0,0)" y="1004" opacity="1">13:39</text><text x="763" style="color: rgb(88, 96, 110); cursor: default; font-size: 11px; fill: rgb(88, 96, 110);" text-anchor="middle" transform="translate(0,0)" y="1004" opacity="1">13:40</text><text x="851.5" style="color: rgb(88, 96, 110); cursor: default; font-size: 11px; fill: rgb(88, 96, 110);" text-anchor="middle" transform="translate(0,0)" y="1004" opacity="1">13:41</text><text x="940" style="color: rgb(88, 96, 110); cursor: default; font-size: 11px; fill: rgb(88, 96, 110);" text-anchor="middle" transform="translate(0,0)" y="1004" opacity="1">13:42</text><text x="1028.5" style="color: rgb(88, 96, 110); cursor: default; font-size: 11px; fill: rgb(88, 96, 110);" text-anchor="middle" transform="translate(0,0)" y="1004" opacity="1">13:43</text><text x="1117" style="color: rgb(88, 96, 110); cursor: default; font-size: 11px; fill: rgb(88, 96, 110);" text-anchor="middle" transform="translate(0,0)" y="1004" opacity="1">13:44</text><text x="1205.5" style="color: rgb(88, 96, 110); cursor: default; font-size: 11px; fill: rgb(88, 96, 110);" text-anchor="middle" transform="translate(0,0)" y="1004" opacity="1">13:45</text><text x="1294" style="color: rgb(88, 96, 110); cursor: default; font-size: 11px; fill: rgb(88, 96, 110);" text-anchor="middle" transform="translate(0,0)" y="1004" opacity="1">13:46</text><text x="1382.5" style="color: rgb(88, 96, 110); cursor: default; font-size: 11px; fill: rgb(88, 96, 110);" text-anchor="middle" transform="translate(0,0)" y="1004" opacity="1">13:47</text><text x="1471" style="color: rgb(88, 96, 110); cursor: default; font-size: 11px; fill: rgb(88, 96, 110);" text-anchor="middle" transform="translate(0,0)" y="1004" opacity="1">13:48</text><text x="1559.5" style="color: rgb(88, 96, 110); cursor: default; font-size: 11px; fill: rgb(88, 96, 110);" text-anchor="middle" transform="translate(0,0)" y="1004" opacity="1">13:49</text><text x="1648" style="color: rgb(88, 96, 110); cursor: default; font-size: 11px; fill: rgb(88, 96, 110);" text-anchor="middle" transform="translate(0,0)" y="1004" opacity="1">13:50</text><text x="1736.5" style="color: rgb(88, 96, 110); cursor: default; font-size: 11px; fill: rgb(88, 96, 110);" text-anchor="middle" transform="translate(0,0)" y="1004" opacity="1">13:51</text><text x="1825" style="color: rgb(88, 96, 110); cursor: default; font-size: 11px; fill: rgb(88, 96, 110);" text-anchor="middle" transform="translate(0,0)" y="1004" opacity="1">13:52</text></g><g class="highcharts-axis-labels highcharts-yaxis-labels" data-z-index="7"><text x="1840" style="color: rgb(88, 96, 110); cursor: default; font-size: 11px; fill: rgb(88, 96, 110);" text-anchor="start" transform="translate(0,0)" y="993" opacity="1">0 ms</text><text x="1840" style="color: rgb(88, 96, 110); cursor: default; font-size: 11px; fill: rgb(88, 96, 110);" text-anchor="start" transform="translate(0,0)" y="923" opacity="1">30 ms</text><text x="1840" style="color: rgb(88, 96, 110); cursor: default; font-size: 11px; fill: rgb(88, 96, 110);" text-anchor="start" transform="translate(0,0)" y="853" opacity="1">60 ms</text><text x="1840" style="color: rgb(88, 96, 110); cursor: default; font-size: 11px; fill: rgb(88, 96, 110);" text-anchor="start" transform="translate(0,0)" y="783" opacity="1">90 ms</text><text x="1840" style="color: rgb(88, 96, 110); cursor: default; font-size: 11px; fill: rgb(88, 96, 110);" text-anchor="start" transform="translate(0,0)" y="713" opacity="1">120 ms</text><text x="1840" style="color: rgb(88, 96, 110); cursor: default; font-size: 11px; fill: rgb(88, 96, 110);" text-anchor="start" transform="translate(0,0)" y="643" opacity="1">150 ms</text><text x="1840" style="color: rgb(88, 96, 110); cursor: default; font-size: 11px; fill: rgb(88, 96, 110);" text-anchor="start" transform="translate(0,0)" y="573" opacity="1">180 ms</text><text x="1840" style="color: rgb(88, 96, 110); cursor: default; font-size: 11px; fill: rgb(88, 96, 110);" text-anchor="start" transform="translate(0,0)" y="504" opacity="1">210 ms</text><text x="1840" style="color: rgb(88, 96, 110); cursor: default; font-size: 11px; fill: rgb(88, 96, 110);" text-anchor="start" transform="translate(0,0)" y="434" opacity="1">240 ms</text><text x="1840" style="color: rgb(88, 96, 110); cursor: default; font-size: 11px; fill: rgb(88, 96, 110);" text-anchor="start" transform="translate(0,0)" y="364" opacity="1">270 ms</text><text x="1840" style="color: rgb(88, 96, 110); cursor: default; font-size: 11px; fill: rgb(88, 96, 110);" text-anchor="start" transform="translate(0,0)" y="294" opacity="1">300 ms</text><text x="1840" style="color: rgb(88, 96, 110); cursor: default; font-size: 11px; fill: rgb(88, 96, 110);" text-anchor="start" transform="translate(0,0)" y="224" opacity="1">330 ms</text><text x="1840" style="color: rgb(88, 96, 110); cursor: default; font-size: 11px; fill: rgb(88, 96, 110);" text-anchor="start" transform="translate(0,0)" y="154" opacity="1">360 ms</text><text x="1840" style="color: rgb(88, 96, 110); cursor: default; font-size: 11px; fill: rgb(88, 96, 110);" text-anchor="start" transform="translate(0,0)" y="84" opacity="1">390 ms</text><text x="1840" style="color: rgb(88, 96, 110); cursor: default; font-size: 11px; fill: rgb(88, 96, 110);" text-anchor="start" transform="translate(0,0)" y="14" opacity="1">420 ms</text></g><g class="highcharts-axis-labels highcharts-yaxis-labels" data-z-index="7"><text x="40" style="color: rgb(88, 96, 110); cursor: default; font-size: 11px; fill: rgb(88, 96, 110);" text-anchor="end" transform="translate(0,0)" y="993" opacity="1">0 vu</text><text x="40" style="color: rgb(88, 96, 110); cursor: default; font-size: 11px; fill: rgb(88, 96, 110);" text-anchor="end" transform="translate(0,0)" y="923" opacity="1">1 vu</text><text x="40" style="color: rgb(88, 96, 110); cursor: default; font-size: 11px; fill: rgb(88, 96, 110);" text-anchor="end" transform="translate(0,0)" y="853" opacity="1">2 vu</text><text x="40" style="color: rgb(88, 96, 110); cursor: default; font-size: 11px; fill: rgb(88, 96, 110);" text-anchor="end" transform="translate(0,0)" y="783" opacity="1">3 vu</text><text x="40" style="color: rgb(88, 96, 110); cursor: default; font-size: 11px; fill: rgb(88, 96, 110);" text-anchor="end" transform="translate(0,0)" y="713" opacity="1">4 vu</text><text x="40" style="color: rgb(88, 96, 110); cursor: default; font-size: 11px; fill: rgb(88, 96, 110);" text-anchor="end" transform="translate(0,0)" y="643" opacity="1">5 vu</text><text x="40" style="color: rgb(88, 96, 110); cursor: default; font-size: 11px; fill: rgb(88, 96, 110);" text-anchor="end" transform="translate(0,0)" y="573" opacity="1">6 vu</text><text x="40" style="color: rgb(88, 96, 110); cursor: default; font-size: 11px; fill: rgb(88, 96, 110);" text-anchor="end" transform="translate(0,0)" y="504" opacity="1">7 vu</text><text x="40" style="color: rgb(88, 96, 110); cursor: default; font-size: 11px; fill: rgb(88, 96, 110);" text-anchor="end" transform="translate(0,0)" y="434" opacity="1">8 vu</text><text x="40" style="color: rgb(88, 96, 110); cursor: default; font-size: 11px; fill: rgb(88, 96, 110);" text-anchor="end" transform="translate(0,0)" y="364" opacity="1">9 vu</text><text x="40" style="color: rgb(88, 96, 110); cursor: default; font-size: 11px; fill: rgb(88, 96, 110);" text-anchor="end" transform="translate(0,0)" y="294" opacity="1">10 vu</text><text x="40" style="color: rgb(88, 96, 110); cursor: default; font-size: 11px; fill: rgb(88, 96, 110);" text-anchor="end" transform="translate(0,0)" y="224" opacity="1">11 vu</text><text x="40" style="color: rgb(88, 96, 110); cursor: default; font-size: 11px; fill: rgb(88, 96, 110);" text-anchor="end" transform="translate(0,0)" y="154" opacity="1">12 vu</text><text x="40" style="color: rgb(88, 96, 110); cursor: default; font-size: 11px; fill: rgb(88, 96, 110);" text-anchor="end" transform="translate(0,0)" y="84" opacity="1">13 vu</text><text x="40" style="color: rgb(88, 96, 110); cursor: default; font-size: 11px; fill: rgb(88, 96, 110);" text-anchor="end" transform="translate(0,0)" y="14" opacity="1">14 vu</text></g><g class="highcharts-axis-labels highcharts-yaxis-labels" data-z-index="7"><text x="1895.61669921875" style="color: rgb(88, 96, 110); cursor: default; font-size: 11px; fill: rgb(88, 96, 110);" text-anchor="start" transform="translate(0,0)" y="993" opacity="1">0</text><text x="1895.61669921875" style="color: rgb(88, 96, 110); cursor: default; font-size: 11px; fill: rgb(88, 96, 110);" text-anchor="start" transform="translate(0,0)" y="923" opacity="1">1.5</text><text x="1895.61669921875" style="color: rgb(88, 96, 110); cursor: default; font-size: 11px; fill: rgb(88, 96, 110);" text-anchor="start" transform="translate(0,0)" y="853" opacity="1">3</text><text x="1895.61669921875" style="color: rgb(88, 96, 110); cursor: default; font-size: 11px; fill: rgb(88, 96, 110);" text-anchor="start" transform="translate(0,0)" y="783" opacity="1">4.5</text><text x="1895.61669921875" style="color: rgb(88, 96, 110); cursor: default; font-size: 11px; fill: rgb(88, 96, 110);" text-anchor="start" transform="translate(0,0)" y="713" opacity="1">6</text><text x="1895.61669921875" style="color: rgb(88, 96, 110); cursor: default; font-size: 11px; fill: rgb(88, 96, 110);" text-anchor="start" transform="translate(0,0)" y="643" opacity="1">7.5</text><text x="1895.61669921875" style="color: rgb(88, 96, 110); cursor: default; font-size: 11px; fill: rgb(88, 96, 110);" text-anchor="start" transform="translate(0,0)" y="573" opacity="1">9</text><text x="1895.61669921875" style="color: rgb(88, 96, 110); cursor: default; font-size: 11px; fill: rgb(88, 96, 110);" text-anchor="start" transform="translate(0,0)" y="504" opacity="1">10.5</text><text x="1895.61669921875" style="color: rgb(88, 96, 110); cursor: default; font-size: 11px; fill: rgb(88, 96, 110);" text-anchor="start" transform="translate(0,0)" y="434" opacity="1">12</text><text x="1895.61669921875" style="color: rgb(88, 96, 110); cursor: default; font-size: 11px; fill: rgb(88, 96, 110);" text-anchor="start" transform="translate(0,0)" y="364" opacity="1">13.5</text><text x="1895.61669921875" style="color: rgb(88, 96, 110); cursor: default; font-size: 11px; fill: rgb(88, 96, 110);" text-anchor="start" transform="translate(0,0)" y="294" opacity="1">15</text><text x="1895.61669921875" style="color: rgb(88, 96, 110); cursor: default; font-size: 11px; fill: rgb(88, 96, 110);" text-anchor="start" transform="translate(0,0)" y="224" opacity="1">16.5</text><text x="1895.61669921875" style="color: rgb(88, 96, 110); cursor: default; font-size: 11px; fill: rgb(88, 96, 110);" text-anchor="start" transform="translate(0,0)" y="154" opacity="1">18</text><text x="1895.61669921875" style="color: rgb(88, 96, 110); cursor: default; font-size: 11px; fill: rgb(88, 96, 110);" text-anchor="start" transform="translate(0,0)" y="84" opacity="1">19.5</text><text x="1895.61669921875" style="color: rgb(88, 96, 110); cursor: default; font-size: 11px; fill: rgb(88, 96, 110);" text-anchor="start" transform="translate(0,0)" y="14" opacity="1">21</text></g></svg>